<?xml version="1.0" encoding="UTF-8"?><svg xmlns="http://www.w3.org/2000/svg" viewBox="0 0 1341.03 1312.5"><defs><style>.cls-1{fill:#457b9d;}.cls-2{fill:#d62728;}.cls-3{fill:#d62828;}</style></defs><g id="Layer_2"><path class="cls-1" d="M585.28,874.74h-109.99c105.63,0,105.63-52.82,105.63-52.82t-102.86,.03c-66.49,0-175.97,0-356.21-.02-105.31-.01-105.31,52.8-105.31,52.8"/><path class="cls-1" d="M776.65,874.73s0-52.81,105.31-52.8q459.07,.04,459.07-.01s0,52.82-105.63,52.82"/><polyline class="cls-1" points="572.53 827.99 475.29 874.74 593.48 874.74"/><polyline class="cls-1" points="730.47 842.31 836.73 827.99 820.32 874.74 717.31 874.74 560.15 874.74 572.53 827.99 730.47 842.31"/><path class="cls-2" d="M762.19,858.19s0-52.81,105.31-52.8q459.07,.04,459.07-.01s0,52.82-105.63,52.82"/><path class="cls-2" d="M458.75,858.19c105.63,0,105.63-52.82,105.63-52.82t-459.07,.01c-105.31-.01-105.31,52.8-105.31,52.8"/><polyline class="cls-2" points="335.14 805.4 949.59 805.4 949.59 858.19 335.14 858.19"/></g><g id="Layer_1"><g><path class="cls-1" d="M343.09,775.66h-64.4l-50-100.8h-56.4v100.8h-56V495.66H246.69c52.8,0,96.4,29.2,96.4,88.8,0,42-18,68.4-53.6,82.4l53.6,108.8Zm-57.6-190c0-25.2-15.2-35.6-40-35.6h-73.2v72h73.2c26,0,40-12,40-36.4Z"/><path class="cls-1" d="M551.89,775.66h-55.2v-14c-10,10.4-27.6,18.4-47.2,18.4-39.2,0-78.4-24-78.4-74.8,0-46.4,37.6-69.6,85.2-69.6,19.2,0,31.6,4,40.4,8.4v-10.4c0-14.8-10-26.8-30-26.8-25.2,0-38.4,3.6-57.6,14l-21.2-38.4c24.4-14,44.8-21.2,78.8-21.2,50.8,0,85.2,26.4,85.2,73.6v140.8Zm-55.2-61.6v-26.4c-9.6-6-18.8-8.8-38.4-8.8-20.8,0-32,9.6-32,26.4,0,14.8,8.4,28,32,28,18,0,32.4-9.2,38.4-19.2Z"/><path class="cls-1" d="M773.89,775.66h-55.2v-13.2c-10.4,9.2-24.4,17.6-44.4,17.6-44.8,0-81.6-33.6-81.6-112,0-62.8,29.6-106.8,81.6-106.8,18.4,0,34.4,7.2,44.4,16.4v-66l55.2-27.6v291.6Zm-55.2-65.2v-79.2c-8.4-11.6-21.2-18-37.2-18-21.2,0-32.8,18.4-32.8,53.6,0,43.2,14.4,61.2,36,61.2,17.2,0,26-7.2,34-17.6Z"/><path class="cls-1" d="M889.49,516.86c0,17.2-14.4,31.6-31.6,31.6s-31.6-14.4-31.6-31.6,14.4-31.6,31.6-31.6,31.6,14.4,31.6,31.6Zm-4,258.8h-55.2v-210h55.2v210Z"/><path class="cls-1" d="M1121.09,775.66h-55.2v-14c-9.6,10-27.2,18.4-49.2,18.4-53.6,0-77.6-36.8-77.6-96v-118.4h55.2v113.6c0,37.6,12.8,48.8,35.6,48.8s36-11.2,36-47.6v-114.8h55.2v210Z"/><path class="cls-1" d="M1231.89,775.66h-55.2V511.66l55.2-27.6v291.6Z"/></g><g><path class="cls-3" d="M332.1,764.65h-64.4l-50-100.8h-56.4v100.8h-56V484.65H235.7c52.8,0,96.4,29.2,96.4,88.8,0,42-18,68.4-53.6,82.4l53.6,108.8Zm-57.6-190c0-25.2-15.2-35.6-40-35.6h-73.2v72h73.2c26,0,40-12,40-36.4Z"/><path class="cls-3" d="M540.9,764.65h-55.2v-14c-10,10.4-27.6,18.4-47.2,18.4-39.2,0-78.4-24-78.4-74.8,0-46.4,37.6-69.6,85.2-69.6,19.2,0,31.6,4,40.4,8.4v-10.4c0-14.8-10-26.8-30-26.8-25.2,0-38.4,3.6-57.6,14l-21.2-38.4c24.4-14,44.8-21.2,78.8-21.2,50.8,0,85.2,26.4,85.2,73.6v140.8Zm-55.2-61.6v-26.4c-9.6-6-18.8-8.8-38.4-8.8-20.8,0-32,9.6-32,26.4,0,14.8,8.4,28,32,28,18,0,32.4-9.2,38.4-19.2Z"/><path class="cls-3" d="M762.9,764.65h-55.2v-13.2c-10.4,9.2-24.4,17.6-44.4,17.6-44.8,0-81.6-33.6-81.6-112,0-62.8,29.6-106.8,81.6-106.8,18.4,0,34.4,7.2,44.4,16.4v-66l55.2-27.6v291.6Zm-55.2-65.2v-79.2c-8.4-11.6-21.2-18-37.2-18-21.2,0-32.8,18.4-32.8,53.6,0,43.2,14.4,61.2,36,61.2,17.2,0,26-7.2,34-17.6Z"/><path class="cls-3" d="M878.5,505.85c0,17.2-14.4,31.6-31.6,31.6s-31.6-14.4-31.6-31.6,14.4-31.6,31.6-31.6,31.6,14.4,31.6,31.6Zm-4,258.8h-55.2v-210h55.2v210Z"/><path class="cls-3" d="M1110.1,764.65h-55.2v-14c-9.6,10-27.2,18.4-49.2,18.4-53.6,0-77.6-36.8-77.6-96v-118.4h55.2v113.6c0,37.6,12.8,48.8,35.6,48.8s36-11.2,36-47.6v-114.8h55.2v210Z"/><path class="cls-3" d="M1220.9,764.65h-55.2V500.65l55.2-27.6v291.6Z"/></g></g></svg>