<?xml version="1.0" encoding="UTF-8"?><svg id="Layer_3" xmlns="http://www.w3.org/2000/svg" viewBox="0 0 1250 1250"><defs><style>.cls-1{fill:#467b9d;}.cls-2{fill:#d72828;}</style></defs><path class="cls-1" d="M1000.6,1208.37c211.26,0,211.26-105.64,211.26-105.64t-918.15,.02c-210.61-.02-210.61,105.61-210.61,105.61"/><path class="cls-2" d="M978.12,1174.42c211.26,0,211.26-105.64,211.26-105.64t-918.15,.02c-210.61-.02-210.61,105.61-210.61,105.61"/><path class="cls-1" d="M1006.59,1025.34h-201.25l-156.25-315h-176.25v315h-175V150.34h407.5c165,0,301.25,91.25,301.25,277.5,0,131.25-56.25,213.75-167.5,257.5l167.5,340Zm-180-593.75c0-78.75-47.5-111.25-125-111.25h-228.75v225h228.75c81.25,0,125-37.5,125-113.75Z"/><path class="cls-2" d="M979.38,998.13h-201.25l-156.25-315h-176.25v315h-175V123.13h407.5c165,0,301.25,91.25,301.25,277.5,0,131.25-56.25,213.75-167.5,257.5l167.5,340Zm-180-593.75c0-78.75-47.5-111.25-125-111.25h-228.75v225h228.75c81.25,0,125-37.5,125-113.75Z"/></svg>